<svg width="300" height="300" viewBox="0 0 300 300" xmlns="http://www.w3.org/2000/svg" role="img" aria-labelledby="logoTitle">
  <title id="logoTitle">Karya Sahabi Makmur logo</title>
  <defs>
    <linearGradient id="circleGrad" x1="0%" y1="0%" x2="100%" y2="100%">
      <stop offset="0%" stop-color="#2f9d3e" />
      <stop offset="100%" stop-color="#1f6f2d" />
    </linearGradient>
    <linearGradient id="bannerGrad" x1="0%" y1="0%" x2="100%" y2="100%">
      <stop offset="0%" stop-color="#3dbf63" />
      <stop offset="100%" stop-color="#29a14a" />
    </linearGradient>
  </defs>
  <circle cx="150" cy="150" r="140" fill="url(#circleGrad)" stroke="#ffffff" stroke-width="10" />
  <circle cx="150" cy="138" r="82" fill="#ffffff" />
  <path d="M94 152c0-16 22-40 44-40s36 16 42 32 20 0 28-8 12-16 34-18 34 10 34 26c0 10-10 14-18 20s-8 10-18 14-16 0-26-4c-10-4-20 8-28 14s-26 6-34 0-22-24-32-30c-10-6-16 8-26 4s-14-10-14-18z" fill="#175b27" />
  <path d="M155 180c10 6 16 18 14 30-2 14-22 16-28 2-6-14 4-30 14-32z" fill="#175b27" />
  <path d="M130 178c-16 0-26 18-26 34 0 16 14 26 30 26s30-10 30-26-12-34-34-34z" fill="#175b27" />
  <path d="M142 228c-2 8-8 16-16 16s-16-8-16-16 4-14 12-18 20-4 24 2c4 6 0 12-4 16z" fill="#2f7a36" />
  <path d="M80 200c14-12 36-18 48-12 10 4 16 16 22 24 10 14 30 16 44 10 10-4 18-10 24-18 10-12 20-26 34-22 10 4 14 18 10 26-6 14-32 26-54 24-24-2-42-18-60-18-12 0-24 6-30 10-12 8-18-6-4-12z" fill="#2f7a36" />
  <path d="M60 212c40 18 88 24 128 4 30-16 34-44 34-44s-26 18-60 18c-30 0-54-18-58-22-4-4-12 12-22 18-16 10-36 10-40 10-6 0-10 8-2 16z" fill="#0f4a24" opacity="0.8" />
  <path d="M50 180c0 0 60 18 100 10 44-10 70-38 70-38s-34 14-62 22c-20 6-56 18-85 16-22-1-23-10-23-10z" fill="#62b06c" opacity="0.9" />
  <path d="M45 210c0 0 38 16 72 16 24 0 58-8 94-26 28-14 38-20 38-20s-28 16-56 24c-28 8-76 16-90 16-22 0-58-10-58-10z" fill="#000000" opacity="0.08" />
  <path d="M40 214c2 18 12 30 24 34 20 8 50 6 76-2 10-3 18-8 26-14 18-12 32-30 50-28 26 4 40 32 24 42-14 8-46 14-74 10-28-4-64-18-84-24-10-4-18-12-24-18z" fill="#ffffff" opacity="0.05" />
  <path d="M35 210c0 0 18 34 58 44 28 8 58 4 82-8 30-14 40-40 40-40s-32 22-64 24c-28 2-76 0-100-20z" fill="#ffffff" opacity="0.03" />
  <path d="M38 230c16 16 54 28 88 24 30-4 66-24 82-46 10-14 10-28 10-28s-26 26-48 34c-28 10-76 14-112 8-18-3-28-10-30-12z" fill="#ffffff" opacity="0.04" />
  <path d="M50 250c30 12 68 18 106 12 40-8 72-28 72-28s-32 18-60 24c-24 4-58 4-86 2-20-1-28-10-32-10z" fill="#ffffff" opacity="0.03" />
  <path d="M70 238c10 8 26 14 40 16 18 2 36-2 52-12 18-12 32-32 32-32s-20 22-42 28c-22 6-50 6-72 0-10-3-14-8-20-10z" fill="#ffffff" opacity="0.04" />
  <path d="M42 190c-8 22 20 32 40 34 22 2 44-4 54-10 22-12 30-24 30-24s-24 14-46 18c-22 4-42 2-54-2-16-6-24-18-24-16z" fill="#82d68d" opacity="0.75" />
  <path d="M60 225c8 14 24 24 46 28 32 6 62 0 82-10 16-8 24-20 24-20s-22 12-42 16c-20 4-50 4-72-2-10-3-24-11-38-12z" fill="#62b06c" opacity="0.9" />
  <path d="M55 206c-5 12 4 24 16 26 16 4 36-6 50-14 18-10 28-20 28-20s-18 6-34 10c-16 4-32 4-48 0-10-3-12-8-12-8z" fill="#3f8f4e" opacity="0.9" />
  <path d="M45 206c0 0 28 4 52-4 24-8 50-22 50-22s-26 16-54 24c-28 8-48 8-48 8z" fill="#ffffff" opacity="0.05" />
  <path d="M68 172c10 4 26 8 42 10 24 4 40 2 56-4 20-8 34-20 34-20s-20 12-42 18c-24 6-54 8-78 4-12-2-18-6-20-8z" fill="#1a5c2b" opacity="0.8" />
  <path d="M35 262c0 0 48 18 92 18 46 0 78-16 86-22 12-10 14-20 16-24 4-12 6-18 6-18s-34 16-68 20c-36 4-90 0-132 4z" fill="#0c3d1c" opacity="0.5" />
  <path d="M45 135c0 0 18 8 42 0 28-10 44-26 80-26s60 24 60 24 10 8 10 16c0 10-12 18-22 20-18 4-54 6-74 0-28-10-48-14-82-8-16 3-22 10-24 14z" fill="#0c4a24" opacity="0.35" />
  <path d="M52 190c0 0 22 8 44 8 24 0 52-18 52-18s-22 10-44 10c-22 0-38-6-52-6-8 0-12 0-12 0z" fill="#1f6d32" opacity="0.6" />
  <path d="M72 232c10 8 16 10 30 8 20-2 42-14 56-26 16-14 26-28 26-28s-22 18-44 26c-22 8-44 6-58 2-8-2-10-4-10-4z" fill="#2c7d3f" opacity="0.75" />
  <path d="M72 116c0 0 46 10 80-4 24-10 40-30 60-28 18 2 30 18 32 26 2 12-4 22-18 24-18 2-44-4-64-10-20-6-38-12-54-10-16 2-26 10-30 14z" fill="#1c6c2f" opacity="0.9" />
  <path d="M75 122c16-2 36 2 56-4 10-3 24-8 38-14 18-8 36-16 52-12 14 4 24 12 28 18 4 8 2 18-6 22-12 6-34 8-56 8-28 0-52-4-70-10-8-2-20-6-26-8z" fill="#2a803e" opacity="0.8" />
  <path d="M50 226c30 18 72 28 112 18 36-8 68-36 68-36s-28 16-52 22c-28 8-66 12-96 2-10-3-20-8-28-12z" fill="#0d471c" opacity="0.55" />
  <path d="M74 158c14-6 28-16 42-24 10-6 20-10 30-10 14 0 28 6 38 12 12 8 18 18 18 28 0 6-2 10-6 14-8 8-20 8-32 4-18-6-36-18-52-26-10-4-20-10-26-14z" fill="#1f5f2f" />
  <path d="M56 182c0 0 18 4 34-4 26-10 44-20 64-32 18-10 38-22 52-20 18 2 26 16 26 16s-22-8-44-4c-18 4-34 12-54 18-20 6-42 10-58 6-6-2-14-4-16-6z" fill="#348256" opacity="0.85" />
  <path d="M45 204c16 8 36 14 54 10 24-6 48-22 64-36 14-12 24-22 24-22s-24 16-46 26c-18 8-42 14-58 12-14-2-26-8-38-10z" fill="#fff" opacity="0.08" />
  <path d="M70 230c0 0 10-24 32-30 20-6 46-2 68 6 20 8 36 24 52 30 20 8 40 10 40 10s-10 4-26 6c-18 2-40 0-62-10-28-12-46-24-66-26-14-2-24 2-32 4z" fill="#1f7740" opacity="0.7" />
  <path d="M150 160c-20 0-36 16-36 36 0 18 16 30 36 30s36-12 36-30c0-20-16-36-36-36z" fill="#0e5126" opacity="0.9" />
  <path d="M56 176c10 8 24 14 40 16 18 2 36 0 56-8 22-10 36-22 42-30 6-10 8-22 8-26 0-6-4-12-10-12-8 0-16 10-20 18-8 16-16 22-30 28-16 6-30 4-48 2-18-2-24-6-38-16z" fill="#1f6a2d" opacity="0.85" />
  <path d="M43 140c0 0 34-10 52-8 28 2 48 14 72 16 30 2 50-10 50-10s-18 8-34 10c-20 2-44-2-70-10-24-8-50-12-70-8-10 2-20 4-20 4z" fill="#54a75f" opacity="0.7" />
  <path d="M38 218c20 12 46 18 72 16 26-2 58-12 78-28 16-12 24-24 26-28 4-10 2-18-8-16-10 2-18 10-20 16-4 10-10 18-20 24-18 10-38 12-58 10-22-2-30-8-40-12-10-4-16 4-18 8z" fill="#2d6d31" opacity="0.75" />
  <path d="M44 202c10 6 24 10 38 10 20 0 42-8 60-18 18-10 32-24 32-24s-26 14-46 18c-18 4-34 4-48 2-12-2-20-6-36-8-8-1-14-2-16-2z" fill="#0f4b24" opacity="0.85" />
  <path d="M35 210c30 24 76 28 112 18 36-10 54-34 54-34s-24 18-40 22c-22 6-58 14-84 10-16-2-30-8-42-10z" fill="#204d28" opacity="0.7" />
  <path d="M51 205c20 10 46 16 70 10 28-8 50-30 50-30s-24 16-46 20c-22 4-42 0-56-6-8-4-18-10-18-10z" fill="#fff" opacity="0.06" />
  <path d="M195 80c0 8-6 20-16 26-10 8-28 14-42 12-16-2-28-12-30-24-2-14 6-26 18-30 16-6 38-2 56 16 8 8 12 16 14 20z" fill="#115022" opacity="0.95" />
  <path d="M225 75c-4 10-14 18-22 24-18 12-42 18-64 16-24-2-40-12-48-24 0 0 22 14 46 16 22 2 42-2 62-12 8-4 14-10 14-10z" fill="#1d6f2f" opacity="0.9" />
  <path d="M145 142c0 22 12 32 28 32s34-16 30-34c-4-18-20-24-32-18-12 6-26 20-26 20z" fill="#105322" opacity="0.7" />
  <path d="M70 141c0 0 18 8 34 4 20-4 36-16 56-18 22-2 44 6 44 6s-24-4-44-2c-18 2-34 10-56 14-16 2-34-4-34-4z" fill="#12612a" opacity="0.85" />
  <path d="M98 178c5 12 16 22 26 24 14 4 30 0 42-10 18-14 18-36 10-50-8-14-26-24-42-24-18 0-32 18-36 30-4 10-2 22 0 30z" fill="#0d4f27" opacity="0.95" />
  <path d="M82 163c-4 8-2 18 4 26 10 12 26 18 42 14 14-4 24-16 26-30 2-16-6-30-18-34-18-6-36 6-48 14z" fill="#18562c" opacity="0.9" />
  <circle cx="150" cy="138" r="12" fill="#0d4f27" />
  <path d="M70 210c24 10 54 18 82 12 28-4 54-16 72-30 16-12 30-26 30-26s-20 16-40 24c-24 10-52 12-72 8-16-2-30-10-42-14z" fill="#0f491f" opacity="0.75" />
  <rect x="42" y="212" width="216" height="26" rx="13" fill="url(#bannerGrad)" />
  <path d="M42 218c26 14 82 22 138 14 34-6 68-26 96-46v8c0 12-8 18-18 18H60c-10 0-18-6-18-18v-8z" fill="#58cc7d" />
  <text x="150" y="234" fill="#ffffff" font-family="Inter, sans-serif" font-weight="700" font-size="18" text-anchor="middle">CV. KARYA SAHABI MAKMUR</text>
</svg>
